<?xml version="1.0" encoding="UTF-8"?>
<svg width="16px" height="16px" viewBox="0 0 16 16" version="1.1" xmlns="http://www.w3.org/2000/svg" xmlns:xlink="http://www.w3.org/1999/xlink">
    <title>刷新</title>
    <g id="思维导图" stroke="none" stroke-width="1" fill="none" fill-rule="evenodd">
        <g id="图标属性备份" transform="translate(-1794.000000, -394.000000)" fill="#FFFFFF">
            <g id="编组-7" transform="translate(1543.000000, 391.499840)">
                <path d="M262.041249,8.58265765 C261.839093,8.48752573 261.746934,8.35969221 261.764771,8.19915709 C261.782609,8.03862198 261.850985,7.91078846 261.9699,7.81565654 C262.005574,7.79187356 262.121516,7.69971451 262.317726,7.53917939 C262.513935,7.37864427 262.754738,7.18540756 263.040134,6.95946924 C262.540691,6.38867772 261.946117,5.93977396 261.25641,5.61275799 C260.566704,5.28574201 259.81754,5.12223402 259.008919,5.12223402 C258.259755,5.12223402 257.558157,5.26195903 256.904125,5.54140904 C256.250093,5.82085906 255.679301,6.20435962 255.19175,6.69191072 C254.704199,7.17946181 254.320699,7.75025334 254.041249,8.4042853 C253.761799,9.05831726 253.622074,9.75991518 253.622074,10.5090791 C253.622074,11.2463514 253.761799,11.9420036 254.041249,12.5960356 C254.320699,13.2500675 254.704199,13.8208591 255.19175,14.3084102 C255.679301,14.7959613 256.250093,15.1794618 256.904125,15.4589118 C257.558157,15.7383618 258.259755,15.8780869 259.008919,15.8780869 C259.627276,15.8780869 260.212932,15.7799821 260.765886,15.5837725 C261.318841,15.3875629 261.824229,15.1110857 262.282051,14.754341 C262.739874,14.3975963 263.132293,13.9784213 263.459309,13.496816 C263.786325,13.0152106 264.027127,12.4890122 264.181717,11.9182206 C264.264957,11.6447164 264.419547,11.4187781 264.645485,11.2404057 C264.871423,11.0620333 265.138982,10.9728472 265.448161,10.9728472 C265.816797,10.9728472 266.128948,11.1036536 266.384615,11.3652663 C266.640282,11.6268791 266.768116,11.9360579 266.768116,12.2928026 C266.768116,12.4592834 266.738387,12.6198186 266.67893,12.7744079 C266.429208,13.6068122 266.060572,14.3738134 265.573021,15.0754113 C265.08547,15.7770092 264.50576,16.3805023 263.833891,16.8858906 C263.162022,17.391279 262.415831,17.786671 261.595318,18.0720668 C260.774805,18.3574626 259.912672,18.5001604 259.008919,18.5001604 C257.90301,18.5001604 256.862505,18.2920594 255.887402,17.8758572 C254.9123,17.459655 254.065032,16.8888635 253.345596,16.1634826 C252.626161,15.4381017 252.05537,14.5908331 251.633222,13.6216766 C251.211074,12.6525202 251,11.6149876 251,10.5090791 C251,9.40317047 251.211074,8.36266508 251.633222,7.38756289 C252.05537,6.4124607 252.626161,5.56519202 253.345596,4.84575687 C254.065032,4.12632172 254.9123,3.55553019 255.887402,3.13338229 C256.862505,2.71123439 257.90301,2.50016044 259.008919,2.50016044 C260.233742,2.50016044 261.369379,2.7528546 262.415831,3.25824293 C263.462282,3.76363127 264.354143,4.45036482 265.091416,5.3184436 C265.36492,5.11628827 265.593831,4.94088879 265.778149,4.79224516 C265.962467,4.64360154 266.07841,4.55144249 266.125975,4.51576802 C266.197324,4.45631057 266.274619,4.41171748 266.35786,4.38198875 C266.4411,4.35226003 266.518395,4.35226003 266.589744,4.38198875 C266.661093,4.41171748 266.723523,4.4741478 266.777035,4.56927972 C266.830546,4.66441165 266.869194,4.80710953 266.892977,4.99737337 C266.904868,5.10439678 266.91676,5.28574201 266.928651,5.54140904 C266.940543,5.79707608 266.952434,6.09436334 266.964326,6.43327081 C266.976217,6.77217828 266.982163,7.12297723 266.982163,7.48566768 C266.982163,7.84835813 266.976217,8.19023848 266.964326,8.51130871 C266.952434,8.91561937 266.857302,9.20696088 266.67893,9.38533324 C266.583798,9.48046516 266.4411,9.53397686 266.250836,9.54586835 C266.060572,9.55775984 265.858417,9.53992261 265.64437,9.49235665 C265.3233,9.42100771 264.969528,9.34371302 264.583055,9.26047259 C264.196581,9.17723216 263.827945,9.09101885 263.477146,9.00183268 C263.126347,8.9126465 262.817168,8.82940607 262.54961,8.75211139 C262.282051,8.6748167 262.112598,8.61833212 262.041249,8.58265765 Z" id="刷新"></path>
            </g>
        </g>
    </g>
</svg>