<?xml version="1.0" encoding="UTF-8"?>
<svg width="13px" height="22px" viewBox="0 0 13 22" version="1.1" xmlns="http://www.w3.org/2000/svg" xmlns:xlink="http://www.w3.org/1999/xlink">
    <title>上下</title>
    <g id="思维导图" stroke="none" stroke-width="1" fill="none" fill-rule="evenodd">
        <g id="图标属性备份" transform="translate(-1754.000000, -391.000000)" fill="#FFFFFF" fill-rule="nonzero">
            <g id="编组-7" transform="translate(1543.000000, 391.499840)">
                <path d="M217.546201,0.000160437768 C217.822464,-0.00609522267 218.108365,0.170584917 218.403902,0.530369928 C218.712289,0.903004404 219.06565,1.34309857 219.463983,1.85065242 C219.862317,2.35820628 220.273499,2.88503433 220.697532,3.43113658 C221.121564,3.97723883 221.542384,4.51370398 221.959992,5.04053203 C222.377599,5.56736008 222.747021,6.03636555 223.068258,6.44754842 C223.428043,6.89727968 223.562962,7.26670179 223.473016,7.55581474 C223.38307,7.8449277 223.106806,7.98305945 222.644226,7.97020998 L221.622693,7.97020998 C221.429951,7.97020998 221.240422,7.97342235 221.054104,7.97984708 C220.867787,7.98627181 220.697532,7.98948418 220.543338,7.98948418 C220.222102,7.98948418 220.019722,8.08585516 219.936201,8.27859713 C219.852679,8.4713391 219.810919,8.73475313 219.810919,9.06883921 L219.810132,9.41656146 C219.808821,9.72993106 219.805871,10.1023033 219.801282,10.5336782 L219.8,10.675 L219.801282,10.8168015 C219.805871,11.2481763 219.808821,11.6205486 219.810132,11.9339182 L219.810919,12.2816404 C219.810919,12.6157265 219.852679,12.8791405 219.936201,13.0718825 C220.019722,13.2646245 220.222102,13.3609955 220.543338,13.3609955 C220.697532,13.3609955 220.867787,13.3642078 221.054104,13.3706326 C221.240422,13.3770573 221.429951,13.3802697 221.622693,13.3802697 L221.622693,13.3802697 L222.644226,13.3802697 C223.106806,13.3674202 223.38307,13.5055519 223.473016,13.7946649 C223.562962,14.0837778 223.428043,14.4532 223.068258,14.9029312 C222.747021,15.3141141 222.377599,15.7831196 221.959992,16.3099476 C221.542384,16.8367757 221.121564,17.3732408 220.697532,17.9193431 C220.273499,18.4654453 219.862317,18.9922734 219.463983,19.4998272 C219.06565,20.0073811 218.712289,20.4474752 218.403902,20.8201097 C218.108365,21.1798947 217.822464,21.3565749 217.546201,21.3503192 C217.269937,21.3437254 216.977612,21.1541958 216.669225,20.7815613 C216.347988,20.3703784 215.972141,19.901373 215.541684,19.3745449 C215.111227,18.8477169 214.674345,18.3080394 214.231039,17.7555124 C213.787732,17.2029854 213.354063,16.6697326 212.93003,16.155754 C212.505998,15.6417754 212.139788,15.1920442 211.831401,14.8065602 C211.523014,14.4339258 211.429855,14.1255386 211.551925,13.8813988 C211.673995,13.637259 211.959896,13.5087643 212.409627,13.4959148 C212.666616,13.4959148 212.971791,13.4862777 213.325151,13.4670035 C213.678512,13.4477293 213.983686,13.4380922 214.240676,13.4380922 C214.587611,13.4380922 214.809265,13.2967481 214.905636,13.0140599 C214.956449,12.8650061 214.992081,12.6873734 215.012529,12.4811618 L215.011644,12.7212995 C215.011644,12.0981005 215.014856,11.4909633 215.021281,10.8998879 L215.023838,10.6540436 L215.023838,10.6540436 L215.021281,10.4505917 C215.014856,9.85951633 215.011644,9.25237913 215.011644,8.62918009 L215.012529,8.86931782 C214.992081,8.66310621 214.956449,8.48547351 214.905636,8.33641972 C214.809265,8.0537315 214.587611,7.91238739 214.240676,7.91238739 C214.047934,7.91238739 213.828087,7.90696652 213.581137,7.89612479 L213.325151,7.88347609 C212.971791,7.8642019 212.666616,7.8545648 212.409627,7.8545648 C211.959896,7.84171533 211.673995,7.71322069 211.551925,7.46908086 C211.429855,7.22494103 211.523014,6.91655388 211.831401,6.5439194 C212.139788,6.15843546 212.505998,5.7087042 212.93003,5.19472561 C213.354063,4.68074702 213.787732,4.14749424 214.231039,3.59496726 C214.674345,3.04244027 215.111227,2.50276276 215.541684,1.97593471 C215.972141,1.44910665 216.347988,0.980101192 216.669225,0.568918322 C216.977612,0.196283846 217.269937,0.00675424201 217.546201,0.000160437768 Z" id="上下"></path>
            </g>
        </g>
    </g>
</svg>