<?xml version="1.0" encoding="UTF-8"?>
<svg width="13px" height="18px" viewBox="0 0 13 18" version="1.1" xmlns="http://www.w3.org/2000/svg" xmlns:xlink="http://www.w3.org/1999/xlink">
    <title>下</title>
    <g id="思维导图" stroke="none" stroke-width="1" fill="none" fill-rule="evenodd">
        <g id="图标属性备份" transform="translate(-1670.000000, -393.000000)" fill="#FFFFFF">
            <g id="编组-7" transform="translate(1543.000000, 391.499840)">
                <path d="M125.012849,9.36099786 C125.012849,8.82132034 125.144556,8.45832296 125.407971,8.27200573 C125.671385,8.08568849 126.08578,7.99252987 126.651156,7.99252987 C126.908146,7.99252987 127.312904,7.99574224 127.865431,8.00216697 C128.417958,8.0085917 129.005821,8.01180407 129.62902,8.01180407 C130.252219,8.01180407 130.859356,8.01501643 131.450431,8.02144117 C132.041507,8.0278659 132.510512,8.03107826 132.857448,8.03107826 C133.345727,8.04392773 133.731211,8.00216697 134.013899,7.90579598 C134.296588,7.809425 134.437932,7.58777173 134.437932,7.24083619 C134.437932,6.98384689 134.447569,6.67867211 134.466843,6.32531183 C134.486117,5.97195155 134.495754,5.66677676 134.495754,5.40978747 C134.508604,4.9600562 134.637099,4.67415561 134.881238,4.5520857 C135.125378,4.43001579 135.433765,4.5231744 135.8064,4.83156156 C136.191884,5.13994871 136.641615,5.50615845 137.155594,5.93019079 C137.669572,6.35422312 138.202825,6.78789256 138.755352,7.23119909 C139.307879,7.67450562 139.847556,8.11138742 140.374384,8.54184448 C140.901213,8.97230155 141.370218,9.34814839 141.781401,9.66938501 C142.154035,9.97777216 142.343565,10.2700975 142.350159,10.546361 C142.356414,10.8226245 142.179734,11.1085251 141.819949,11.4040627 C141.447315,11.7124499 141.007221,12.0658102 140.499667,12.4641436 C139.992113,12.862477 139.465285,13.2736599 138.919183,13.6976922 C138.37308,14.1217245 137.836615,14.5425445 137.309787,14.9601521 C136.782959,15.3777597 136.313954,15.7471818 135.902771,16.0684184 C135.45304,16.4282034 135.083617,16.5631228 134.794504,16.4731766 C134.505392,16.3832303 134.36726,16.1069668 134.380109,15.6443861 L134.380109,15.1818054 L134.380109,14.6228536 C134.380109,14.4301117 134.376897,14.2405821 134.370472,14.0542648 C134.364047,13.8679476 134.360835,13.6976922 134.360835,13.5434986 C134.360835,13.222262 134.264464,13.0198829 134.071722,12.9363614 C133.87898,12.8528399 133.615566,12.8110791 133.28148,12.8110791 C132.908846,12.8110791 132.420566,12.8078668 131.816641,12.801442 C131.212716,12.7950173 130.583092,12.7918049 129.92777,12.7918049 C129.272447,12.7918049 128.636399,12.7885926 128.019624,12.7821678 C127.40285,12.7757431 126.901721,12.7725307 126.516237,12.7725307 C126.349194,12.7725307 126.175726,12.7564689 125.995834,12.7243452 C125.815941,12.6922216 125.65211,12.6311866 125.504341,12.5412404 C125.356573,12.4512941 125.237715,12.3195871 125.147769,12.1461193 C125.057823,11.9726516 125.012849,11.7381488 125.012849,11.4426111 C125.012849,11.0956756 125.009637,10.7615895 125.003212,10.4403529 C124.996788,10.1191163 125,9.75933126 125.012849,9.36099786 L125.012849,9.36099786 Z" id="下" transform="translate(133.675079, 10.500160) scale(1, -1) rotate(-90.000000) translate(-133.675079, -10.500160) "></path>
            </g>
        </g>
    </g>
</svg>