<?xml version="1.0" encoding="UTF-8"?>
<svg width="18px" height="12px" viewBox="0 0 18 12" version="1.1" xmlns="http://www.w3.org/2000/svg" xmlns:xlink="http://www.w3.org/1999/xlink">
    <title>右</title>
    <g id="思维导图" stroke="none" stroke-width="1" fill="none" fill-rule="evenodd">
        <g id="图标属性备份" transform="translate(-1585.000000, -396.000000)" fill="#FFFFFF">
            <g id="编组-7" transform="translate(1543.000000, 391.499840)">
                <path d="M42.0128495,9.36099786 C42.0128495,8.82132034 42.1445565,8.45832296 42.4079705,8.27200573 C42.6713845,8.08568849 43.0857798,7.99252987 43.6511562,7.99252987 C43.9081455,7.99252987 44.3129036,7.99574224 44.8654306,8.00216697 C45.4179576,8.0085917 46.0058206,8.01180407 46.6290197,8.01180407 C47.2522187,8.01180407 47.8593559,8.01501643 48.4504313,8.02144117 C49.0415066,8.0278659 49.5105121,8.03107826 49.8574477,8.03107826 C50.3457273,8.04392773 50.7312113,8.00216697 51.0138995,7.90579598 C51.2965877,7.809425 51.4379318,7.58777173 51.4379318,7.24083619 C51.4379318,6.98384689 51.4475689,6.67867211 51.4668431,6.32531183 C51.4861173,5.97195155 51.4957544,5.66677676 51.4957544,5.40978747 C51.5086039,4.9600562 51.6370985,4.67415561 51.8812383,4.5520857 C52.1253782,4.43001579 52.4337653,4.5231744 52.8063998,4.83156156 C53.1918837,5.13994871 53.641615,5.50615845 54.1555936,5.93019079 C54.6695722,6.35422312 55.202825,6.78789256 55.7553519,7.23119909 C56.3078789,7.67450562 56.8475564,8.11138742 57.3743845,8.54184448 C57.9012125,8.97230155 58.370218,9.34814839 58.7814009,9.66938501 C59.1540354,9.97777216 59.343565,10.2700975 59.3501588,10.546361 C59.3564144,10.8226245 59.1797343,11.1085251 58.8199493,11.4040627 C58.4473148,11.7124499 58.0072206,12.0658102 57.4996668,12.4641436 C56.9921129,12.862477 56.4652849,13.2736599 55.9191826,13.6976922 C55.3730804,14.1217245 54.8366152,14.5425445 54.3097872,14.9601521 C53.7829591,15.3777597 53.3139537,15.7471818 52.9027708,16.0684184 C52.4530395,16.4282034 52.0836174,16.5631228 51.7945045,16.4731766 C51.5053915,16.3832303 51.3672598,16.1069668 51.3801092,15.6443861 L51.3801092,15.1818054 L51.3801092,14.6228536 C51.3801092,14.4301117 51.3768969,14.2405821 51.3704721,14.0542648 C51.3640474,13.8679476 51.360835,13.6976922 51.360835,13.5434986 C51.360835,13.222262 51.264464,13.0198829 51.0717221,12.9363614 C50.8789801,12.8528399 50.6155661,12.8110791 50.28148,12.8110791 C49.9088455,12.8110791 49.4205659,12.8078668 48.816641,12.801442 C48.2127162,12.7950173 47.5830924,12.7918049 46.9277697,12.7918049 C46.272447,12.7918049 45.6363985,12.7885926 45.0196242,12.7821678 C44.4028499,12.7757431 43.9017208,12.7725307 43.5162368,12.7725307 C43.3491938,12.7725307 43.175726,12.7564689 42.9958335,12.7243452 C42.815941,12.6922216 42.6521103,12.6311866 42.5043415,12.5412404 C42.3565726,12.4512941 42.2377151,12.3195871 42.1477688,12.1461193 C42.0578226,11.9726516 42.0128495,11.7381488 42.0128495,11.4426111 C42.0128495,11.0956756 42.0096371,10.7615895 42.0032124,10.4403529 C41.9967876,10.1191163 42,9.75933126 42.0128495,9.36099786 L42.0128495,9.36099786 Z" id="右"></path>
            </g>
        </g>
    </g>
</svg>