<?xml version="1.0" encoding="UTF-8"?>
<svg width="22px" height="12px" viewBox="0 0 22 12" version="1.1" xmlns="http://www.w3.org/2000/svg" xmlns:xlink="http://www.w3.org/1999/xlink">
    <title>左右</title>
    <g id="思维导图" stroke="none" stroke-width="1" fill="none" fill-rule="evenodd">
        <g id="图标属性备份" transform="translate(-1708.000000, -396.000000)" fill="#FFFFFF" fill-rule="nonzero">
            <g id="编组-7" transform="translate(1543.000000, 391.499840)">
                <path d="M178.794504,4.52714431 C179.083617,4.43719806 179.45304,4.57211744 179.902771,4.93190245 C180.313954,5.25313907 180.782959,5.62256118 181.309787,6.04016878 C181.836615,6.45777638 182.37308,6.87859635 182.919183,7.30262869 C183.465285,7.72666102 183.992113,8.13784389 184.499667,8.5361773 C185.007221,8.9345107 185.447315,9.28787098 185.819949,9.59625813 C186.179734,9.89179582 186.356414,10.1776964 186.350159,10.4539599 C186.343565,10.7302234 186.154035,11.0225487 185.781401,11.3309359 C185.370218,11.6521725 184.901213,12.0280193 184.374384,12.4584764 C183.847556,12.8889335 183.307879,13.3258153 182.755352,13.7691218 C182.202825,14.2124283 181.669572,14.6460978 181.155594,15.0701301 C180.641615,15.4941624 180.191884,15.8603722 179.8064,16.1687593 C179.433765,16.4771465 179.125378,16.5703051 178.881238,16.4482352 C178.637099,16.3261653 178.508604,16.0402647 178.495754,15.5905334 C178.495754,15.3335441 178.486117,15.0283693 178.466843,14.675009 C178.447569,14.3216488 178.437932,14.016474 178.437932,13.7594847 C178.437932,13.4125491 178.296588,13.1908959 178.013899,13.0945249 C177.864846,13.0437111 177.687213,13.0080799 177.481001,12.9876312 L177.721139,12.9885168 C177.09794,12.9885168 176.490803,12.9853044 175.899727,12.9788797 L175.67484,12.9761604 L175.450431,12.9788797 C175.056381,12.9831629 174.655192,12.9860183 174.246865,12.987446 L173.869157,12.9876312 C173.662946,13.0080799 173.485313,13.0437111 173.336259,13.0945249 C173.053571,13.1908959 172.912227,13.4125491 172.912227,13.7594847 C172.912227,13.9522267 172.906806,14.172073 172.895964,14.4190236 L172.883316,14.675009 C172.864041,15.0283693 172.854404,15.3335441 172.854404,15.5905334 C172.841555,16.0402647 172.71306,16.3261653 172.46892,16.4482352 C172.224781,16.5703051 171.916393,16.4771465 171.543759,16.1687593 C171.158275,15.8603722 170.708544,15.4941624 170.194565,15.0701301 C169.680587,14.6460978 169.147334,14.2124283 168.594807,13.7691218 C168.04228,13.3258153 167.502602,12.8889335 166.975774,12.4584764 C166.448946,12.0280193 165.979941,11.6521725 165.568758,11.3309359 C165.196123,11.0225487 165.006594,10.7302234 165,10.4539599 C164.993744,10.1776964 165.170424,9.89179582 165.530209,9.59625813 C165.902844,9.28787098 166.342938,8.9345107 166.850492,8.5361773 C167.358046,8.13784389 167.884874,7.72666102 168.430976,7.30262869 C168.977078,6.87859635 169.513544,6.45777638 170.040372,6.04016878 C170.5672,5.62256118 171.036205,5.25313907 171.447388,4.93190245 C171.897119,4.57211744 172.266541,4.43719806 172.555654,4.52714431 C172.844767,4.61709057 172.982899,4.89335406 172.97005,5.35593479 L172.97005,6.37746723 C172.97005,6.5702092 172.973262,6.7597388 172.979687,6.94605604 C172.986111,7.13237328 172.989324,7.30262869 172.989324,7.45682226 C172.989324,7.77805888 173.085695,7.98043795 173.278437,8.06395947 C173.471179,8.14748099 173.734593,8.18924175 174.068679,8.18924175 L174.416401,8.19002845 C174.729771,8.19133962 175.102143,8.19428975 175.533518,8.19887885 L175.67484,8.19916044 L175.816641,8.19887885 C176.248016,8.19428975 176.620388,8.19133962 176.933758,8.19002845 L177.28148,8.18924175 C177.615566,8.18924175 177.87898,8.14748099 178.071722,8.06395947 C178.264464,7.98043795 178.360835,7.77805888 178.360835,7.45682226 C178.360835,7.30262869 178.364047,7.13237328 178.370472,6.94605604 C178.376897,6.7597388 178.380109,6.5702092 178.380109,6.37746723 L178.380109,6.37746723 L178.380109,5.35593479 C178.36726,4.89335406 178.505392,4.61709057 178.794504,4.52714431 Z" id="左右"></path>
            </g>
        </g>
    </g>
</svg>