<?xml version="1.0" encoding="UTF-8"?>
<svg width="13px" height="18px" viewBox="0 0 13 18" version="1.1" xmlns="http://www.w3.org/2000/svg" xmlns:xlink="http://www.w3.org/1999/xlink">
    <title>上</title>
    <g id="思维导图" stroke="none" stroke-width="1" fill="none" fill-rule="evenodd">
        <g id="图标属性备份" transform="translate(-1628.000000, -393.000000)" fill="#FFFFFF">
            <g id="编组-7" transform="translate(1543.000000, 391.499840)">
                <path d="M83.0128495,9.36099786 C83.0128495,8.82132034 83.1445565,8.45832296 83.4079705,8.27200573 C83.6713845,8.08568849 84.0857798,7.99252987 84.6511562,7.99252987 C84.9081455,7.99252987 85.3129036,7.99574224 85.8654306,8.00216697 C86.4179576,8.0085917 87.0058206,8.01180407 87.6290197,8.01180407 C88.2522187,8.01180407 88.8593559,8.01501643 89.4504313,8.02144117 C90.0415066,8.0278659 90.5105121,8.03107826 90.8574477,8.03107826 C91.3457273,8.04392773 91.7312113,8.00216697 92.0138995,7.90579598 C92.2965877,7.809425 92.4379318,7.58777173 92.4379318,7.24083619 C92.4379318,6.98384689 92.4475689,6.67867211 92.4668431,6.32531183 C92.4861173,5.97195155 92.4957544,5.66677676 92.4957544,5.40978747 C92.5086039,4.9600562 92.6370985,4.67415561 92.8812383,4.5520857 C93.1253782,4.43001579 93.4337653,4.5231744 93.8063998,4.83156156 C94.1918837,5.13994871 94.641615,5.50615845 95.1555936,5.93019079 C95.6695722,6.35422312 96.202825,6.78789256 96.7553519,7.23119909 C97.3078789,7.67450562 97.8475564,8.11138742 98.3743845,8.54184448 C98.9012125,8.97230155 99.370218,9.34814839 99.7814009,9.66938501 C100.154035,9.97777216 100.343565,10.2700975 100.350159,10.546361 C100.356414,10.8226245 100.179734,11.1085251 99.8199493,11.4040627 C99.4473148,11.7124499 99.0072206,12.0658102 98.4996668,12.4641436 C97.9921129,12.862477 97.4652849,13.2736599 96.9191826,13.6976922 C96.3730804,14.1217245 95.8366152,14.5425445 95.3097872,14.9601521 C94.7829591,15.3777597 94.3139537,15.7471818 93.9027708,16.0684184 C93.4530395,16.4282034 93.0836174,16.5631228 92.7945045,16.4731766 C92.5053915,16.3832303 92.3672598,16.1069668 92.3801092,15.6443861 L92.3801092,15.1818054 L92.3801092,14.6228536 C92.3801092,14.4301117 92.3768969,14.2405821 92.3704721,14.0542648 C92.3640474,13.8679476 92.360835,13.6976922 92.360835,13.5434986 C92.360835,13.222262 92.264464,13.0198829 92.0717221,12.9363614 C91.8789801,12.8528399 91.6155661,12.8110791 91.28148,12.8110791 C90.9088455,12.8110791 90.4205659,12.8078668 89.816641,12.801442 C89.2127162,12.7950173 88.5830924,12.7918049 87.9277697,12.7918049 C87.272447,12.7918049 86.6363985,12.7885926 86.0196242,12.7821678 C85.4028499,12.7757431 84.9017208,12.7725307 84.5162368,12.7725307 C84.3491938,12.7725307 84.175726,12.7564689 83.9958335,12.7243452 C83.815941,12.6922216 83.6521103,12.6311866 83.5043415,12.5412404 C83.3565726,12.4512941 83.2377151,12.3195871 83.1477688,12.1461193 C83.0578226,11.9726516 83.0128495,11.7381488 83.0128495,11.4426111 C83.0128495,11.0956756 83.0096371,10.7615895 83.0032124,10.4403529 C82.9967876,10.1191163 83,9.75933126 83.0128495,9.36099786 L83.0128495,9.36099786 Z" id="上" transform="translate(91.675079, 10.500160) rotate(-90.000000) translate(-91.675079, -10.500160) "></path>
            </g>
        </g>
    </g>
</svg>