<?xml version="1.0" encoding="UTF-8"?>
<svg width="18px" height="12px" viewBox="0 0 18 12" version="1.1" xmlns="http://www.w3.org/2000/svg" xmlns:xlink="http://www.w3.org/1999/xlink">
    <title>左</title>
    <g id="思维导图" stroke="none" stroke-width="1" fill="none" fill-rule="evenodd">
        <g id="图标属性备份" transform="translate(-1543.000000, -396.000000)" fill="#FFFFFF">
            <g id="编组-7" transform="translate(1543.000000, 391.499840)">
                <path d="M0.0128494647,9.36099786 C0.0128494647,8.82132034 0.144556478,8.45832296 0.407970504,8.27200573 C0.67138453,8.08568849 1.08577977,7.99252987 1.65115621,7.99252987 C1.90814551,7.99252987 2.31290364,7.99574224 2.86543062,8.00216697 C3.41795761,8.0085917 4.00582062,8.01180407 4.62901965,8.01180407 C5.25221869,8.01180407 5.8593559,8.01501643 6.45043127,8.02144117 C7.04150665,8.0278659 7.51051211,8.03107826 7.85744766,8.03107826 C8.34572731,8.04392773 8.73121125,8.00216697 9.01389948,7.90579598 C9.2965877,7.809425 9.43793181,7.58777173 9.43793181,7.24083619 C9.43793181,6.98384689 9.44756891,6.67867211 9.46684311,6.32531183 C9.4861173,5.97195155 9.4957544,5.66677676 9.4957544,5.40978747 C9.50860387,4.9600562 9.63709851,4.67415561 9.88123834,4.5520857 C10.1253782,4.43001579 10.4337653,4.5231744 10.8063998,4.83156156 C11.1918837,5.13994871 11.641615,5.50615845 12.1555936,5.93019079 C12.6695722,6.35422312 13.202825,6.78789256 13.7553519,7.23119909 C14.3078789,7.67450562 14.8475564,8.11138742 15.3743845,8.54184448 C15.9012125,8.97230155 16.370218,9.34814839 16.7814009,9.66938501 C17.1540354,9.97777216 17.343565,10.2700975 17.3501588,10.546361 C17.3564144,10.8226245 17.1797343,11.1085251 16.8199493,11.4040627 C16.4473148,11.7124499 16.0072206,12.0658102 15.4996668,12.4641436 C14.9921129,12.862477 14.4652849,13.2736599 13.9191826,13.6976922 C13.3730804,14.1217245 12.8366152,14.5425445 12.3097872,14.9601521 C11.7829591,15.3777597 11.3139537,15.7471818 10.9027708,16.0684184 C10.4530395,16.4282034 10.0836174,16.5631228 9.79450446,16.4731766 C9.5053915,16.3832303 9.36725976,16.1069668 9.38010922,15.6443861 L9.38010922,15.1818054 L9.38010922,14.6228536 C9.38010922,14.4301117 9.37689685,14.2405821 9.37047212,14.0542648 C9.36404739,13.8679476 9.36083502,13.6976922 9.36083502,13.5434986 C9.36083502,13.222262 9.26446404,13.0198829 9.07172207,12.9363614 C8.8789801,12.8528399 8.61556607,12.8110791 8.28147999,12.8110791 C7.90884551,12.8110791 7.42056586,12.8078668 6.81664102,12.801442 C6.21271618,12.7950173 5.58309241,12.7918049 4.92776971,12.7918049 C4.27244701,12.7918049 3.63639851,12.7885926 3.0196242,12.7821678 C2.4028499,12.7757431 1.90172077,12.7725307 1.51623683,12.7725307 C1.34919379,12.7725307 1.17572602,12.7564689 0.995833513,12.7243452 C0.815941008,12.6922216 0.652110333,12.6311866 0.504341489,12.5412404 C0.356572645,12.4512941 0.237715097,12.3195871 0.147768844,12.1461193 C0.0578225911,11.9726516 0.0128494647,11.7381488 0.0128494647,11.4426111 C0.0128494647,11.0956756 0.00963709851,10.7615895 0.00321236617,10.4403529 C-0.00321236617,10.1191163 5.5067062e-14,9.75933126 0.0128494647,9.36099786 L0.0128494647,9.36099786 Z" id="左" transform="translate(8.675079, 10.500160) scale(-1, 1) translate(-8.675079, -10.500160) "></path>
            </g>
        </g>
    </g>
</svg>