<?xml version="1.0" standalone="no"?><!DOCTYPE svg PUBLIC "-//W3C//DTD SVG 1.1//EN" "http://www.w3.org/Graphics/SVG/1.1/DTD/svg11.dtd"><svg t="1646376045656" class="icon" viewBox="0 0 1024 1024" version="1.1" xmlns="http://www.w3.org/2000/svg" p-id="6557" xmlns:xlink="http://www.w3.org/1999/xlink" width="200" height="200"><defs><style type="text/css"></style></defs><path d="M512 0c282.7776 0 512 229.2224 512 512s-229.2224 512-512 512S0 794.7776 0 512 229.2224 0 512 0z m0 51.2a460.8 460.8 0 1 0 0 921.6 460.8 460.8 0 0 0 0-921.6z" fill="#FDB54C" p-id="6558"></path><path d="M256 256m38.4 0l353.28 0q38.4 0 38.4 38.4l0 0q0 38.4-38.4 38.4l-353.28 0q-38.4 0-38.4-38.4l0 0q0-38.4 38.4-38.4Z" fill="#FDB54C" p-id="6559"></path><path d="M256 691.2m38.4 0l353.28 0q38.4 0 38.4 38.4l0 0q0 38.4-38.4 38.4l-353.28 0q-38.4 0-38.4-38.4l0 0q0-38.4 38.4-38.4Z" fill="#FDB54C" p-id="6560"></path><path d="M256 476.16m38.4 0l537.6 0q38.4 0 38.4 38.4l0 0q0 38.4-38.4 38.4l-537.6 0q-38.4 0-38.4-38.4l0 0q0-38.4 38.4-38.4Z" fill="#FDB54C" p-id="6561"></path></svg>