<?xml version="1.0" encoding="UTF-8"?>
<svg width="18px" height="16px" viewBox="0 0 18 16" version="1.1" xmlns="http://www.w3.org/2000/svg" xmlns:xlink="http://www.w3.org/1999/xlink">
    <title>02</title>
    <g id="思维导图" stroke="none" stroke-width="1" fill="none" fill-rule="evenodd">
        <g id="图标属性备份" transform="translate(-1585.000000, -442.000000)" fill="#FFFFFF" fill-rule="nonzero">
            <g id="编组-6" transform="translate(1545.126723, 441.838636)">
                <path d="M48.9459505,10.8444539 C51.0200246,10.8444539 52.8037283,11.181491 54.2970616,11.855565 C55.790395,12.5296391 56.8066913,13.4266761 57.3459505,14.5466761 C57.3459505,14.5674169 57.3563209,14.598528 57.3770616,14.6400095 C57.3978024,14.681491 57.4289135,14.7540835 57.470395,14.8577872 C57.5118764,14.961491 57.5066913,15.1533428 57.4548394,15.4333428 C57.4029876,15.7133428 57.2007653,15.9051947 56.8481727,16.0088984 C56.3296542,15.4488984 55.6866913,14.9407502 54.9192839,14.4844539 C54.2555802,14.0903798 53.4259505,13.7326021 52.430395,13.4111206 C51.4348394,13.0896391 50.2526172,12.9288984 48.8837283,12.9288984 C47.5355802,12.9288984 46.3792839,13.0896391 45.4148394,13.4111206 C44.450395,13.7326021 43.6466913,14.0903798 43.0037283,14.4844539 C42.2570616,14.9407502 41.624469,15.4488984 41.1059505,16.0088984 C40.9400246,15.9881576 40.810395,15.9259354 40.7170616,15.8222317 C40.6237283,15.718528 40.5511357,15.6044539 40.4992839,15.4800095 C40.447432,15.355565 40.4215061,15.2363058 40.4215061,15.1222317 C40.4215061,15.0081576 40.4318764,14.9200095 40.4526172,14.8577872 C40.4526172,14.8370465 40.4629876,14.8163058 40.4837283,14.795565 C40.6911357,14.235565 41.0540987,13.7170465 41.5726172,13.2400095 C42.0911357,12.7629724 42.7237283,12.3429724 43.470395,11.9800095 C44.2170616,11.6170465 45.0570616,11.3370465 45.990395,11.1400095 C46.9237283,10.9429724 47.9089135,10.8444539 48.9459505,10.8444539 Z M53.3015061,0.484453914 C53.6126172,0.484453914 53.8978024,0.551861322 54.1570616,0.686676136 C54.4163209,0.821490951 54.6496542,1.00815762 54.8570616,1.24667614 C55.064469,1.48519465 55.2252098,1.76519465 55.3392839,2.08667614 C55.4533579,2.40815762 55.510395,2.74519465 55.510395,3.09778725 C55.510395,3.82371317 55.2926172,4.4459354 54.8570616,4.96445391 C54.4215061,5.48297243 53.9029876,5.74223169 53.3015061,5.74223169 C52.7000246,5.74223169 52.1815061,5.48297243 51.7459505,4.96445391 C51.310395,4.4459354 51.0926172,3.82371317 51.0926172,3.09778725 C51.0926172,2.74519465 51.1496542,2.40815762 51.2637283,2.08667614 C51.3778024,1.76519465 51.5385431,1.48519465 51.7459505,1.24667614 C51.9533579,1.00815762 52.1866913,0.821490951 52.4459505,0.686676136 C52.7052098,0.551861322 52.990395,0.484453914 53.3015061,0.484453914 Z M44.4970616,0.484453914 C45.0985431,0.484453914 45.6066913,0.738527988 46.0215061,1.24667614 C46.4363209,1.75482428 46.6437283,2.37186132 46.6437283,3.09778725 C46.6437283,3.82371317 46.4363209,4.4459354 46.0215061,4.96445391 C45.6066913,5.48297243 45.0985431,5.74223169 44.4970616,5.74223169 C43.8955802,5.74223169 43.3822468,5.48297243 42.9570616,4.96445391 C42.5318764,4.4459354 42.3192839,3.82371317 42.3192839,3.09778725 C42.3192839,2.37186132 42.5318764,1.75482428 42.9570616,1.24667614 C43.3822468,0.738527988 43.8955802,0.484453914 44.4970616,0.484453914 Z" id="02"></path>
            </g>
        </g>
    </g>
</svg>