<?xml version="1.0" encoding="UTF-8"?>
<svg width="17px" height="19px" viewBox="0 0 17 19" version="1.1" xmlns="http://www.w3.org/2000/svg" xmlns:xlink="http://www.w3.org/1999/xlink">
    <title>05</title>
    <g id="思维导图" stroke="none" stroke-width="1" fill="none" fill-rule="evenodd">
        <g id="图标属性备份" transform="translate(-1710.000000, -442.000000)" fill="#FFFFFF" fill-rule="nonzero">
            <g id="编组-6" transform="translate(1545.126723, 441.838636)">
                <path d="M173.730095,10.0219815 C174.302822,10.0219815 174.838428,10.1333452 175.336913,10.3560724 C175.835398,10.5787997 176.27555,10.8757694 176.657368,11.2469815 C177.039186,11.6181937 177.336156,12.0530421 177.548277,12.551527 C177.760398,13.0500118 177.866459,13.5856179 177.866459,14.1583452 C177.866459,14.7310724 177.760398,15.2719815 177.548277,15.7810724 C177.336156,16.2901634 177.039186,16.7303149 176.657368,17.101527 C176.27555,17.4727391 175.835398,17.7697088 175.336913,17.9924361 C174.838428,18.2151634 174.302822,18.326527 173.730095,18.326527 C173.157368,18.326527 172.621762,18.2151634 172.123277,17.9924361 C171.624792,17.7697088 171.189944,17.4727391 170.818731,17.101527 C170.447519,16.7303149 170.15055,16.2901634 169.927822,15.7810724 C169.705095,15.2719815 169.593731,14.7310724 169.593731,14.1583452 C169.593731,13.5856179 169.705095,13.0500118 169.927822,12.551527 C170.15055,12.0530421 170.447519,11.6181937 170.818731,11.2469815 C171.189944,10.8757694 171.624792,10.5787997 172.123277,10.3560724 C172.621762,10.1333452 173.157368,10.0219815 173.730095,10.0219815 Z M165.584641,0.731072443 L171.884641,4.39016335 C171.48161,4.87804214 171.089186,5.28107244 170.707368,5.59925426 C170.367974,5.87501184 169.996762,6.09243608 169.593731,6.25152699 C169.190701,6.4106179 168.808883,6.39470881 168.448277,6.20379972 C168.087671,6.03410275 167.737671,5.64698153 167.398277,5.04243608 C167.058883,4.43789063 166.751307,3.81743608 166.47555,3.18107244 C166.157368,2.4386482 165.860398,1.62198153 165.584641,0.731072443 L165.584641,0.731072443 Z M181.907368,0.731072443 C181.63161,1.62198153 181.334641,2.4386482 181.016459,3.18107244 C180.740701,3.81743608 180.433125,4.43789063 180.093731,5.04243608 C179.754338,5.64698153 179.404338,6.03410275 179.043731,6.20379972 C178.683125,6.39470881 178.301307,6.4106179 177.898277,6.25152699 C177.495247,6.09243608 177.124034,5.87501184 176.784641,5.59925426 C176.402822,5.28107244 176.010398,4.87804214 175.607368,4.39016335 L175.607368,4.39016335 Z" id="05"></path>
            </g>
        </g>
    </g>
</svg>