<?xml version="1.0" encoding="UTF-8"?>
<svg width="14px" height="15px" viewBox="0 0 14 15" version="1.1" xmlns="http://www.w3.org/2000/svg" xmlns:xlink="http://www.w3.org/1999/xlink">
    <title>01</title>
    <g id="思维导图" stroke="none" stroke-width="1" fill="none" fill-rule="evenodd">
        <g id="图标属性备份" transform="translate(-1545.000000, -444.000000)" fill="#FFFFFF" fill-rule="nonzero">
            <g id="编组-6" transform="translate(1545.126723, 441.838636)">
                <path d="M12.5739627,10.6741935 C12.8583984,10.6748315 13.9460113,10.7732386 13.7295095,11.9256258 C13.0514149,14.9382994 9.98666667,17.0234122 6.87871528,17.0234122 C3.65841146,17.0234122 0.608884549,14.8818194 -1.53654867e-13,11.8043714 C-1.53654867e-13,10.972605 0.634921875,10.6741935 1.02599826,10.6741935 L12.5739627,10.6741935 Z M11.0057075,2.42087753 C12.2330165,2.42087753 13.227934,3.41579506 13.227934,4.64310409 C13.227934,5.87038273 12.2330165,6.86530027 11.0057075,6.86530027 C9.77839844,6.86530027 8.7834809,5.87038273 8.7834809,4.64313447 C8.7834809,3.41582544 9.77839844,2.42087753 11.0057075,2.42087753 Z M2.75172309,2.42087753 C3.97903212,2.42087753 4.97394965,3.41579506 4.97394965,4.64310409 C4.97394965,5.87038273 3.97903212,6.86530027 2.75172309,6.86530027 C1.52441406,6.86530027 0.52952691,5.87038273 0.52952691,4.64313447 C0.52952691,3.41582544 1.52444444,2.42087753 2.75172309,2.42087753 Z" id="01"></path>
            </g>
        </g>
    </g>
</svg>