<?xml version="1.0" encoding="UTF-8"?>
<svg width="17px" height="18px" viewBox="0 0 17 18" version="1.1" xmlns="http://www.w3.org/2000/svg" xmlns:xlink="http://www.w3.org/1999/xlink">
    <title>06</title>
    <g id="思维导图" stroke="none" stroke-width="1" fill="none" fill-rule="evenodd">
        <g id="图标属性备份" transform="translate(-1751.000000, -441.000000)" fill="#FFFFFF" fill-rule="nonzero">
            <g id="编组-6" transform="translate(1545.126723, 441.838636)">
                <path d="M222.080095,10.8810724 C222.249792,10.9447088 222.382368,11.0295573 222.477822,11.1356179 C222.573277,11.2416785 222.636913,11.3583452 222.668731,11.4856179 C222.70055,11.6128906 222.716459,11.7295573 222.716459,11.8356179 C222.716459,11.9416785 222.705853,12.0159209 222.684641,12.0583452 C222.642216,12.1644058 222.610398,12.2386482 222.589186,12.2810724 C222.567974,12.3234967 222.557368,12.3659209 222.557368,12.4083452 C222.048277,13.5537997 221.093731,14.476527 219.693731,15.176527 C218.293731,15.876527 216.62858,16.226527 214.698277,16.226527 C213.722519,16.226527 212.794489,16.1257694 211.914186,15.9242543 C211.033883,15.7227391 210.243731,15.4363755 209.543731,15.0651634 C208.843731,14.6939512 208.249792,14.2591027 207.761913,13.7606179 C207.274034,13.262133 206.934641,12.726527 206.743731,12.1537997 C206.722519,12.1325876 206.717216,12.1166785 206.727822,12.1060724 C206.738428,12.0954664 206.733125,12.0795573 206.711913,12.0583452 C206.690701,11.9947088 206.680095,11.9098603 206.680095,11.8037997 C206.680095,11.6977391 206.701307,11.5810724 206.743731,11.4537997 C206.786156,11.326527 206.849792,11.2098603 206.934641,11.1037997 C207.019489,10.9977391 207.146762,10.9234967 207.316459,10.8810724 C207.804338,11.4750118 208.398277,12.0053149 209.098277,12.4719815 C209.713428,12.8750118 210.466459,13.2409209 211.357368,13.5697088 C212.248277,13.8984967 213.330095,14.0628906 214.602822,14.0628906 C215.87555,14.0628906 216.983883,13.8984967 217.927822,13.5697088 C218.871762,13.2409209 219.651307,12.8750118 220.266459,12.4719815 C220.987671,12.0053149 221.592216,11.4750118 222.080095,10.8810724 Z M219.72555,0.062890625 C220.446762,0.062890625 221.05661,0.359860322 221.555095,0.953799716 C222.05358,1.54773911 222.302822,2.26895123 222.302822,3.11743608 C222.302822,3.98713305 222.05358,4.71895123 221.555095,5.31289063 C221.05661,5.90683002 220.446762,6.20379972 219.72555,6.20379972 C219.004338,6.20379972 218.394489,5.90683002 217.896004,5.31289063 C217.397519,4.71895123 217.148277,3.98713305 217.148277,3.11743608 C217.148277,2.26895123 217.397519,1.54773911 217.896004,0.953799716 C218.394489,0.359860322 219.004338,0.062890625 219.72555,0.062890625 Z M212.757368,4.10379972 L212.757368,6.07652699 L206.77555,6.07652699 L206.77555,4.10379972 L212.757368,4.10379972 Z" id="06"></path>
            </g>
        </g>
    </g>
</svg>