<?xml version="1.0" encoding="UTF-8"?>
<svg width="16px" height="19px" viewBox="0 0 16 19" version="1.1" xmlns="http://www.w3.org/2000/svg" xmlns:xlink="http://www.w3.org/1999/xlink">
    <title>07</title>
    <g id="思维导图" stroke="none" stroke-width="1" fill="none" fill-rule="evenodd">
        <g id="图标属性备份" transform="translate(-1794.000000, -442.000000)" fill="#FFFFFF" fill-rule="nonzero">
            <g id="编组-6" transform="translate(1545.126723, 441.838636)">
                <path d="M256.761913,10.0219815 C257.334641,10.0219815 257.870247,10.1333452 258.368731,10.3560724 C258.867216,10.5787997 259.302065,10.8757694 259.673277,11.2469815 C260.044489,11.6181937 260.341459,12.0530421 260.564186,12.551527 C260.786913,13.0500118 260.898277,13.5856179 260.898277,14.1583452 C260.898277,14.7310724 260.786913,15.2719815 260.564186,15.7810724 C260.341459,16.2901634 260.044489,16.7303149 259.673277,17.101527 C259.302065,17.4727391 258.867216,17.7697088 258.368731,17.9924361 C257.870247,18.2151634 257.334641,18.326527 256.761913,18.326527 C256.189186,18.326527 255.65358,18.2151634 255.155095,17.9924361 C254.65661,17.7697088 254.216459,17.4727391 253.834641,17.101527 C253.452822,16.7303149 253.155853,16.2901634 252.943731,15.7810724 C252.73161,15.2719815 252.62555,14.7310724 252.62555,14.1583452 C252.62555,13.5856179 252.73161,13.0500118 252.943731,12.551527 C253.155853,12.0530421 253.452822,11.6181937 253.834641,11.2469815 C254.216459,10.8757694 254.65661,10.5787997 255.155095,10.3560724 C255.65358,10.1333452 256.189186,10.0219815 256.761913,10.0219815 Z M251.543731,1.14470881 C252.137671,1.14470881 252.646762,1.39925426 253.071004,1.90834517 C253.495247,2.41743608 253.707368,3.03258759 253.707368,3.75379972 C253.707368,4.49622396 253.495247,5.12198153 253.071004,5.63107244 C252.646762,6.14016335 252.137671,6.39470881 251.543731,6.39470881 C250.949792,6.39470881 250.446004,6.14016335 250.032368,5.63107244 C249.618731,5.12198153 249.411913,4.49622396 249.411913,3.75379972 C249.411913,3.03258759 249.618731,2.41743608 250.032368,1.90834517 C250.446004,1.39925426 250.949792,1.14470881 251.543731,1.14470881 Z M261.852822,1.08107244 C262.467974,1.08107244 262.992974,1.3356179 263.427822,1.84470881 C263.862671,2.35379972 264.080095,2.97955729 264.080095,3.72198153 C264.080095,4.44319366 263.862671,5.05834517 263.427822,5.56743608 C262.992974,6.07652699 262.467974,6.33107244 261.852822,6.33107244 C261.237671,6.33107244 260.717974,6.07652699 260.293731,5.56743608 C259.869489,5.05834517 259.657368,4.44319366 259.657368,3.72198153 C259.657368,2.97955729 259.869489,2.35379972 260.293731,1.84470881 C260.717974,1.3356179 261.237671,1.08107244 261.852822,1.08107244 Z" id="07"></path>
            </g>
        </g>
    </g>
</svg>