<?xml version="1.0" encoding="UTF-8"?>
<svg width="17px" height="15px" viewBox="0 0 17 15" version="1.1" xmlns="http://www.w3.org/2000/svg" xmlns:xlink="http://www.w3.org/1999/xlink">
    <title>03</title>
    <g id="思维导图" stroke="none" stroke-width="1" fill="none" fill-rule="evenodd">
        <g id="图标属性备份" transform="translate(-1626.000000, -443.000000)" fill="#FFFFFF" fill-rule="nonzero">
            <g id="编组-6" transform="translate(1545.126723, 441.838636)">
                <path d="M95.7111675,14.0621449 L95.7111675,16.0348722 L83.7793494,16.0348722 L83.7793494,14.0621449 L95.7111675,14.0621449 Z M87.7566221,2.09850852 L87.7566221,4.10305398 L85.6566221,4.10305398 C85.5929857,4.69699337 85.4816221,5.18487216 85.3225312,5.56669034 C85.1634403,5.94850852 84.9778342,6.13941761 84.765713,6.13941761 C84.5535918,6.13941761 84.3679857,5.94850852 84.2088948,5.56669034 C84.0498039,5.18487216 83.9384403,4.69699337 83.8748039,4.10305398 L83.8748039,4.10305398 L81.7748039,4.10305398 L81.7748039,2.09850852 L87.7566221,2.09850852 Z M97.715713,2.09850852 L97.715713,4.10305398 L95.615713,4.10305398 C95.5520766,4.69699337 95.440713,5.18487216 95.2816221,5.56669034 C95.1225312,5.94850852 94.9369251,6.13941761 94.7248039,6.13941761 C94.5126827,6.13941761 94.3270766,5.94850852 94.1679857,5.56669034 C94.0088948,5.18487216 93.8975312,4.69699337 93.8338948,4.10305398 L93.8338948,4.10305398 L91.7338948,4.10305398 L91.7338948,2.09850852 L97.715713,2.09850852 Z" id="03"></path>
            </g>
        </g>
    </g>
</svg>