<?xml version="1.0" encoding="UTF-8"?>
<svg width="18px" height="18px" viewBox="0 0 18 18" version="1.1" xmlns="http://www.w3.org/2000/svg" xmlns:xlink="http://www.w3.org/1999/xlink">
    <title>04</title>
    <g id="旧版" stroke="none" stroke-width="1" fill="none" fill-rule="evenodd">
        <g id="图标属性备份" transform="translate(-1668.000000, -441.000000)" fill="#FFFFFF" fill-rule="nonzero">
            <g id="8" transform="translate(1667.126723, 440.838636)">
                <path d="M5.05511811,1 C5.9160105,1 6.64566929,1.28865979 7.24409449,1.86597938 C7.84251969,2.44329897 8.14173228,3.15463918 8.14173228,4 C8.14173228,4.84536082 7.84251969,5.55670103 7.24409449,6.13402062 C6.64566929,6.71134021 5.9160105,7 5.05511811,7 C4.6351706,7 4.24146982,6.92268041 3.87401575,6.76804124 C3.50656168,6.61340206 3.18110236,6.40206186 2.8976378,6.13402062 C2.61417323,5.86597938 2.39370079,5.54639175 2.23622047,5.17525773 C2.07874016,4.80412371 2,4.41237113 2,4 C2,3.58762887 2.07874016,3.19587629 2.23622047,2.82474227 C2.39370079,2.45360825 2.61417323,2.13402062 2.8976378,1.86597938 C3.18110236,1.59793814 3.50656168,1.38659794 3.87401575,1.23195876 C4.24146982,1.07731959 4.6351706,1 5.05511811,1 Z M14.9133858,1 C15.7742782,1 16.503937,1.28865979 17.1023622,1.86597938 C17.7007874,2.44329897 18,3.15463918 18,4 C18,4.84536082 17.7007874,5.55670103 17.1023622,6.13402062 C16.503937,6.71134021 15.7742782,7 14.9133858,7 C14.4934383,7 14.0997375,6.92268041 13.7322835,6.76804124 C13.3648294,6.61340206 13.0393701,6.40206186 12.7559055,6.13402062 C12.4724409,5.86597938 12.2519685,5.54639175 12.0944882,5.17525773 C11.9370079,4.80412371 11.8582677,4.41237113 11.8582677,4 C11.8582677,3.58762887 11.9370079,3.19587629 12.0944882,2.82474227 C12.2519685,2.45360825 12.4724409,2.13402062 12.7559055,1.86597938 C13.0393701,1.59793814 13.3648294,1.38659794 13.7322835,1.23195876 C14.0997375,1.07731959 14.4934383,1 14.9133858,1 Z M14.9448819,2.45360825 C14.503937,2.45360825 14.1259843,2.60309278 13.8110236,2.90206186 C13.496063,3.20103093 13.3385827,3.56701031 13.3385827,4 C13.3385827,4.43298969 13.496063,4.79896907 13.8110236,5.09793814 C14.1259843,5.39690722 14.503937,5.54639175 14.9448819,5.54639175 C15.3648294,5.54639175 15.7322835,5.39690722 16.0472441,5.09793814 C16.3622047,4.79896907 16.519685,4.43298969 16.519685,4 C16.519685,3.56701031 16.3622047,3.20103093 16.0472441,2.90206186 C15.7322835,2.60309278 15.3648294,2.45360825 14.9448819,2.45360825 Z M5.08661417,2.60824742 C4.66666667,2.60824742 4.32020997,2.74226804 4.04724409,3.01030928 C3.77427822,3.27835052 3.63779528,3.60824742 3.63779528,4 C3.63779528,4.39175258 3.77427822,4.72680412 4.04724409,5.00515464 C4.32020997,5.28350515 4.66666667,5.42268041 5.08661417,5.42268041 C5.4855643,5.42268041 5.82152231,5.28350515 6.09448819,5.00515464 C6.36745407,4.72680412 6.50393701,4.39175258 6.50393701,4 C6.50393701,3.60824742 6.36745407,3.27835052 6.09448819,3.01030928 C5.82152231,2.74226804 5.4855643,2.60824742 5.08661417,2.60824742 Z" id="04"></path>
            </g>
        </g>
    </g>
</svg>