<?xml version="1.0" encoding="UTF-8"?>
<svg width="14px" height="14px" viewBox="0 0 14 14" version="1.1" xmlns="http://www.w3.org/2000/svg" xmlns:xlink="http://www.w3.org/1999/xlink">
    <title>旗子</title>
    <g id="思维导图" stroke="none" stroke-width="1" fill="none" fill-rule="evenodd">
        <g id="图标属性备份" transform="translate(-1545.000000, -347.000000)" fill="#FFFFFF" fill-rule="nonzero">
            <g id="旗子-2" transform="translate(1545.000000, 347.000000)">
                <path d="M1.08319982,0 L0.318588182,0 C0.141373506,0 -5.32907052e-15,0.143100511 -5.32907052e-15,0.318001136 L-5.32907052e-15,13.6819989 C-5.32907052e-15,13.858887 0.143364682,14 0.318588182,14 L1.08319982,14 C1.2604145,14 1.401788,13.8568995 1.401788,13.6819989 L1.401788,0.319988643 C1.40377918,0.143100511 1.2604145,0 1.08319982,0 Z M13.6813712,1.49858035 C9.91804835,4.52952868 6.15472544,-2.09085747 2.38941137,0.93810335 C2.21418787,1.07921635 2.07082318,1.36144236 2.07082318,1.53634299 L2.07082318,10.1005111 C2.07082318,10.2773992 2.21418787,10.2793867 2.38941137,10.1382737 C6.15273427,7.10732538 9.91804835,13.729699 13.6813712,10.6987507 C13.8585859,10.5576377 13.9999799,10.2754117 13.9999799,10.1005111 L13.9999799,1.53634299 C14.0019506,1.36144236 13.8585859,1.35746735 13.6813712,1.49858035 Z" id="旗子"></path>
            </g>
        </g>
    </g>
</svg>