<?xml version="1.0" standalone="no"?><!DOCTYPE svg PUBLIC "-//W3C//DTD SVG 1.1//EN" "http://www.w3.org/Graphics/SVG/1.1/DTD/svg11.dtd"><svg t="1646622917151" class="icon" viewBox="0 0 1024 1024" version="1.1" xmlns="http://www.w3.org/2000/svg" p-id="8009" xmlns:xlink="http://www.w3.org/1999/xlink" width="200" height="200"><defs><style type="text/css"></style></defs><path d="M512 0c282.7776 0 512 229.2224 512 512s-229.2224 512-512 512S0 794.7776 0 512 229.2224 0 512 0z m0 51.2a460.8 460.8 0 1 0 0 921.6 460.8 460.8 0 0 0 0-921.6z" fill="#2379F9" p-id="8010"></path><path d="M775.424 458.24l-57.856 57.856a23.6032 23.6032 0 1 1-33.4336-33.28l57.9584-58.0096c39.3728-39.4752 39.3728-103.424 0-142.848a103.424 103.424 0 0 0-142.848 0L493.4144 387.6352c-3.5328 3.4304-6.656 7.168-9.472 11.264a100.352 100.352 0 0 0 9.472 131.6864 23.6032 23.6032 0 1 1-33.4336 33.3312 146.8416 146.8416 0 0 1-14.8992-191.8464c4.352-6.4 9.3696-12.3904 14.8992-17.8176l105.7792-105.7792a148.2752 148.2752 0 1 1 209.6128 209.664z m-244.8896 1.8432a23.552 23.552 0 0 0 0 33.3824 99.84 99.84 0 0 1 23.552 105.5744 96.5632 96.5632 0 0 1-23.552 37.376l-105.728 105.7792a103.424 103.424 0 0 1-142.848 0 101.1712 101.1712 0 0 1 0-142.8992l57.856-57.9584a23.6032 23.6032 0 1 0-33.3824-33.3824l-57.856 57.9072a148.2752 148.2752 0 1 0 209.6128 209.7152l105.7792-105.7792c15.6672-15.5136 27.5968-34.4576 34.7648-55.296a148.3264 148.3264 0 0 0-34.816-154.2656 23.6032 23.6032 0 0 0-33.3824-0.1536z" fill="#2379F9" p-id="8011"></path></svg>