<?xml version="1.0" encoding="UTF-8"?>
<svg width="12px" height="16px" viewBox="0 0 12 16" version="1.1" xmlns="http://www.w3.org/2000/svg" xmlns:xlink="http://www.w3.org/1999/xlink">
    <title>6</title>
    <g id="思维导图" stroke="none" stroke-width="1" fill="none" fill-rule="evenodd">
        <g id="图标属性备份" transform="translate(-1754.000000, -298.000000)" fill="#FFFFFF">
            <g id="编组-6" transform="translate(1548.020000, 298.440000)">
                <path d="M212.18,-1.74615877e-12 C214.98,-1.74615877e-12 216.56,1.3 216.92,3.9 L216.92,3.9 L214.64,3.9 C214.36,2.58 213.52,1.92 212.16,1.92 C211.2,1.92 210.44,2.38 209.88,3.32 C209.32,4.2 209.06,5.3 209.06,6.62 L209.06,6.62 L209.06,6.8 L209.16,6.8 C209.56,6.2 210.06,5.78 210.66,5.5 C211.22,5.22 211.86,5.1 212.58,5.1 C213.98,5.1 215.1,5.54 215.94,6.44 C216.78,7.34 217.2,8.5 217.2,9.9 C217.2,11.34 216.7,12.52 215.74,13.44 C214.78,14.36 213.58,14.84 212.16,14.84 C210.4,14.84 209.06,14.2 208.14,12.94 C207.22,11.7 206.78,10 206.78,7.82 C206.78,5.48 207.26,3.6 208.24,2.16 C209.2,0.72 210.52,-1.74615877e-12 212.18,-1.74615877e-12 Z M212.08,7 C211.2,7 210.52,7.26 210.04,7.8 C209.54,8.32 209.3,9.06 209.3,9.98 C209.3,10.88 209.56,11.6 210.08,12.12 C210.6,12.64 211.26,12.9 212.08,12.9 C212.92,12.9 213.58,12.62 214.1,12.06 C214.62,11.5 214.88,10.78 214.88,9.9 C214.88,9.02 214.62,8.32 214.14,7.8 C213.62,7.26 212.94,7 212.08,7 Z" id="6"></path>
            </g>
        </g>
    </g>
</svg>