<?xml version="1.0" encoding="UTF-8"?>
<svg width="12px" height="16px" viewBox="0 0 12 16" version="1.1" xmlns="http://www.w3.org/2000/svg" xmlns:xlink="http://www.w3.org/1999/xlink">
    <title>5</title>
    <g id="思维导图" stroke="none" stroke-width="1" fill="none" fill-rule="evenodd">
        <g id="图标属性备份" transform="translate(-1713.000000, -298.000000)" fill="#FFFFFF">
            <g id="编组-6" transform="translate(1548.020000, 298.440000)">
                <path d="M175.52,0.28 L166.82,0.28 L166.04,8.32 L168.22,8.32 C168.5,7.82 168.88,7.46 169.38,7.22 C169.82,7 170.36,6.9 170.98,6.9 C171.9,6.9 172.62,7.16 173.1,7.72 C173.58,8.26 173.84,9.02 173.84,9.98 C173.84,10.86 173.54,11.56 172.98,12.08 C172.4,12.6 171.68,12.86 170.84,12.86 C170.06,12.86 169.44,12.68 169,12.36 C168.48,11.98 168.18,11.4 168.08,10.62 L165.78,10.62 C165.88,11.94 166.44,13 167.48,13.78 C168.4,14.48 169.52,14.84 170.82,14.84 C172.24,14.84 173.46,14.42 174.5,13.58 C175.62,12.64 176.18,11.44 176.18,9.96 C176.18,8.42 175.74,7.2 174.9,6.32 C174.06,5.44 172.96,5 171.62,5 C170.98,5 170.4,5.1 169.88,5.3 C169.3,5.5 168.8,5.82 168.36,6.26 L168.3,6.26 L168.7,2.34 L175.52,2.34 L175.52,0.28 Z" id="5"></path>
            </g>
        </g>
    </g>
</svg>