<?xml version="1.0" encoding="UTF-8"?>
<svg width="12px" height="16px" viewBox="0 0 12 16" version="1.1" xmlns="http://www.w3.org/2000/svg" xmlns:xlink="http://www.w3.org/1999/xlink">
    <title>3</title>
    <g id="思维导图" stroke="none" stroke-width="1" fill="none" fill-rule="evenodd">
        <g id="图标属性备份" transform="translate(-1629.000000, -298.000000)" fill="#FFFFFF">
            <g id="编组-6" transform="translate(1548.020000, 298.440000)">
                <path d="M87.12,7.27595761e-12 C85.72,7.27595761e-12 84.56,0.38 83.66,1.18 C82.7,1.98 82.18,3.1 82.06,4.54 L84.36,4.54 C84.44,3.68 84.72,3.04 85.2,2.62 C85.66,2.2 86.3,2 87.14,2 C87.96,2 88.58,2.18 89,2.54 C89.38,2.9 89.58,3.42 89.58,4.12 C89.58,4.82 89.36,5.36 88.94,5.72 C88.5,6.08 87.86,6.26 87.02,6.26 L86.02,6.26 L86.02,8.02 L87.02,8.02 C87.94,8.02 88.64,8.2 89.12,8.6 C89.6,8.98 89.86,9.58 89.86,10.4 C89.86,11.08 89.62,11.64 89.16,12.1 C88.64,12.6 87.92,12.86 87.02,12.86 C86.2,12.86 85.54,12.62 85.04,12.16 C84.48,11.66 84.2,10.94 84.16,10.02 L81.78,10.02 C81.9,11.62 82.46,12.86 83.46,13.7 C84.36,14.46 85.56,14.84 87.04,14.84 C88.6,14.84 89.86,14.4 90.82,13.54 C91.74,12.7 92.2,11.62 92.2,10.3 C92.2,9.46 91.96,8.76 91.48,8.22 C91.04,7.7 90.38,7.32 89.54,7.06 C91.12,6.54 91.92,5.5 91.92,3.94 C91.92,2.7 91.48,1.74 90.62,1.04 C89.74,0.34 88.56,7.27595761e-12 87.12,7.27595761e-12 Z" id="3"></path>
            </g>
        </g>
    </g>
</svg>