<?xml version="1.0" encoding="UTF-8"?>
<svg width="10px" height="15px" viewBox="0 0 10 15" version="1.1" xmlns="http://www.w3.org/2000/svg" xmlns:xlink="http://www.w3.org/1999/xlink">
    <title>2</title>
    <g id="思维导图" stroke="none" stroke-width="1" fill="none" fill-rule="evenodd">
        <g id="图标属性备份" transform="translate(-1589.000000, -298.000000)" fill="#FFFFFF">
            <g id="编组-6" transform="translate(1548.020000, 298.440000)">
                <path d="M46.2,7.27595761e-12 C44.66,7.27595761e-12 43.42,0.52 42.48,1.56 C41.56,2.54 41.1,3.82 41.08,5.42 L43.42,5.42 C43.46,4.3 43.7,3.44 44.14,2.88 C44.58,2.28 45.24,1.98 46.12,1.98 C46.94,1.98 47.56,2.16 47.98,2.54 C48.38,2.92 48.6,3.5 48.6,4.28 C48.6,5.08 48.28,5.84 47.66,6.54 C47.3,6.918 46.7456,7.3932 45.96764,7.95102 L45.1374028,8.53152453 C43.7892042,9.48318339 42.8788235,10.2305882 42.42,10.76 C41.46,11.84 41,13.1 41,14.56 L50.96,14.56 L50.96,12.5 L43.92,12.5 C44.24,11.78 45.12,10.94 46.58,9.98 L47.1553936,9.58810496 C48.2567347,8.82612245 49.06,8.19428571 49.54,7.68 C50.46,6.66 50.94,5.54 50.94,4.3 C50.94,3.02 50.5,2 49.62,1.2 C48.72,0.4 47.58,7.27595761e-12 46.2,7.27595761e-12 Z" id="2"></path>
            </g>
        </g>
    </g>
</svg>