<?xml version="1.0" encoding="UTF-8"?>
<svg width="16px" height="15px" viewBox="0 0 16 15" version="1.1" xmlns="http://www.w3.org/2000/svg" xmlns:xlink="http://www.w3.org/1999/xlink">
    <title>02</title>
    <g id="思维导图" stroke="none" stroke-width="1" fill="none" fill-rule="evenodd">
        <g id="图标属性备份" transform="translate(-1586.000000, -491.000000)" fill="#FFFFFF">
            <g id="编组-8" transform="translate(1544.000000, 491.000000)">
                <path d="M46.1028516,15 C45.7229815,15 45.3528517,14.8831169 45.0411633,14.6493507 C44.4762283,14.2402597 44.203501,13.5584416 44.3203841,12.8766234 L44.7684361,10.2467532 C44.8268776,9.90584416 44.7099945,9.56493505 44.466488,9.33116883 L42.5476568,7.46103896 C42.0509036,6.97402597 41.8755789,6.26298702 42.0898646,5.60064935 C42.3041503,4.93831168 42.8690854,4.46103895 43.5606438,4.36363637 L46.2002542,3.98376622 C46.5411633,3.93506492 46.8333711,3.72077922 46.979475,3.41883117 L48.1580464,1.02272728 C48.4697348,0.389610386 49.0931114,0 49.7944101,0 C50.4957088,0 51.1190854,0.389610386 51.4210335,1.01298702 L52.6093451,3.40909091 C52.7651893,3.71103896 53.0573971,3.92532468 53.3885659,3.97402596 L56.0281763,4.35389611 C56.7197348,4.45129871 57.2846698,4.92857144 57.4989555,5.59090909 C57.7132413,6.25324676 57.5379166,6.96428571 57.0411633,7.4512987 L55.1320724,9.31168831 C54.8885659,9.54545455 54.7716828,9.8961039 54.8301244,10.2272727 L55.2781763,12.8571429 C55.3950595,13.5487013 55.1223322,14.2207792 54.5573971,14.6298701 C53.992462,15.038961 53.2619426,15.0876623 52.6483062,14.7662338 L50.2814231,13.5487013 C49.979475,13.3928571 49.6190854,13.3928571 49.3171374,13.5487013 L46.9502542,14.7954546 C46.677527,14.9318182 46.3853192,15 46.1028516,15 Z" id="02"></path>
            </g>
        </g>
    </g>
</svg>