<?xml version="1.0" encoding="UTF-8"?>
<svg width="15px" height="15px" viewBox="0 0 15 15" version="1.1" xmlns="http://www.w3.org/2000/svg" xmlns:xlink="http://www.w3.org/1999/xlink">
    <title>04</title>
    <g id="思维导图" stroke="none" stroke-width="1" fill="none" fill-rule="evenodd">
        <g id="图标属性备份" transform="translate(-1712.000000, -492.000000)" fill="#FFFFFF" fill-rule="nonzero">
            <g id="编组-8" transform="translate(1544.000000, 491.000000)">
                <path d="M182.528534,6.23167447 L182.528534,9.21852939 C182.527318,11.0657443 181.146759,12.6210879 179.312736,12.8414603 L177.791192,15.9692597 L175.826733,12.8699413 L171.654265,12.8699413 C169.637645,12.8699413 168.002853,11.2351485 168.002853,9.21852939 L168.002853,4.65426454 C168.002853,2.63764545 169.637645,1.00285266 171.654265,1.00285266 L178.877122,1.00285266 C180.893741,1.00285266 182.528534,2.63764545 182.528534,4.65426454 L182.528534,6.07429863 L182.6085,6.06955179 L182.528534,6.23167447 Z M171.654265,6.1148293 C171.049279,6.1148293 170.558841,6.60526713 170.558841,7.21025286 C170.558841,7.81523859 171.049279,8.30567642 171.654265,8.30567642 C172.25925,8.30567642 172.749688,7.81523859 172.749688,7.21025286 C172.749688,6.91972847 172.634278,6.6411032 172.428846,6.43567143 C172.223414,6.23023966 171.944789,6.1148293 171.654265,6.1148293 Z M175.305676,6.1148293 C174.700691,6.1148293 174.210253,6.60526713 174.210253,7.21025286 C174.210253,7.81523859 174.700691,8.30567642 175.305676,8.30567642 C175.910662,8.30567642 176.4011,7.81523859 176.4011,7.21025286 C176.4011,6.91972847 176.28569,6.6411032 176.080258,6.43567143 C175.874826,6.23023966 175.596201,6.1148293 175.305676,6.1148293 L175.305676,6.1148293 Z M178.957088,6.1148293 C178.514031,6.1148293 178.1146,6.38172068 177.945049,6.79105241 C177.775498,7.20038414 177.869218,7.67154535 178.182507,7.98483429 C178.495796,8.29812323 178.966957,8.39184302 179.376289,8.22229227 C179.78562,8.05274152 180.052512,7.65331033 180.052512,7.21025286 C180.052512,6.91972847 179.937102,6.6411032 179.73167,6.43567143 C179.526238,6.23023966 179.247613,6.1148293 178.957088,6.1148293 L178.957088,6.1148293 Z" id="04"></path>
            </g>
        </g>
    </g>
</svg>