<?xml version="1.0" encoding="UTF-8"?>
<svg width="18px" height="17px" viewBox="0 0 18 17" version="1.1" xmlns="http://www.w3.org/2000/svg" xmlns:xlink="http://www.w3.org/1999/xlink">
    <title>04</title>
    <g id="旧版" stroke="none" stroke-width="1" fill="none" fill-rule="evenodd">
        <g id="图标属性备份" transform="translate(-1668.000000, -490.000000)" fill="#FFFFFF" fill-rule="nonzero">
            <g id="编组-8" transform="translate(1544.000000, 490.000000)">
                <path d="M125,7.99358259 L125,14.7765067 C125,15.4255022 125.52567,15.9511719 126.174665,15.9511719 L127.232143,15.9511719 L127.232143,6.83007812 L126.174665,6.81891741 C125.525916,6.81891741 125,7.34483293 125,7.99358259 Z M138.833705,5.58621652 L134.163504,5.61579241 C134.382812,4.84402902 134.493862,4.15820312 134.493862,3.55440848 C134.493862,2.1844308 133.293527,0.842912946 132.094866,1.01702009 C131.037946,1.17047991 130.921875,2.08398437 130.921875,3.22851562 L130.921875,4.26199777 C130.921875,5.58844866 129.808594,6.71847098 128.517857,6.84291295 L128.348214,6.84123884 L128.348214,15.9511719 L137.547991,15.9511719 C138.408653,15.9511719 139.1477,15.3391785 139.308036,14.4935826 L140.59375,7.71065848 C140.692957,7.18654221 140.553419,6.64547969 140.213109,6.23471298 C139.8728,5.82394627 139.367128,5.58621586 138.833705,5.58621652 L138.833705,5.58621652 Z" id="04"></path>
            </g>
        </g>
    </g>
</svg>