<?xml version="1.0" encoding="UTF-8"?>
<svg width="15px" height="15px" viewBox="0 0 15 15" version="1.1" xmlns="http://www.w3.org/2000/svg" xmlns:xlink="http://www.w3.org/1999/xlink">
    <title>05</title>
    <g id="思维导图" stroke="none" stroke-width="1" fill="none" fill-rule="evenodd">
        <g id="图标属性备份" transform="translate(-1753.000000, -492.000000)" fill="#FFFFFF" fill-rule="nonzero">
            <g id="编组-8" transform="translate(1544.000000, 491.000000)">
                <path d="M215.876208,9.4739449 C216.746053,9.4739449 217.680332,9.69946038 218.389095,10.2149243 C219.709971,11.0525531 220.612033,12.5345119 220.612033,14.2097696 L220.612033,14.2097696 L220.612033,14.4997181 C220.612033,15.8588515 218.799855,15.9437973 216.396596,15.9491064 L213.471783,15.9493247 C210.949098,15.946094 209.014095,15.8729462 209.014095,14.4997181 L209.014095,14.4997181 L209.014095,14.2097696 C209.014095,12.5345119 209.88394,11.0525532 211.1726,10.1827078 C211.881363,9.69946036 212.815641,9.4739449 213.685486,9.4739449 L213.685486,9.4739449 Z M218.840126,3.15951192 L219.006739,3.16502292 C220.436278,3.26005036 221.481878,4.57107168 221.481878,6.09121295 C221.481878,7.25100676 220.773115,8.15306861 219.871053,8.60409954 C220.418734,8.66853254 221.030847,9.08734698 221.385229,9.31286244 C222.029559,9.69946036 223.221569,11.3102851 223.124919,12.4700789 L223.124919,12.4700789 L223.124919,12.6955944 C223.124919,13.4043573 222.416157,13.6620892 221.320796,13.7265222 L221.320796,13.7265222 L221.320796,13.3077078 C221.320796,11.761316 220.515383,10.3760068 219.291157,9.60281089 C218.743476,9.21621296 218.002497,8.73296553 217.32595,8.66853254 C218.421311,8.12085214 219.25894,7.05770781 219.452239,5.64018203 C219.581105,4.77033667 219.420023,3.77162532 218.840126,3.15951192 L218.840126,3.15951192 Z M214.684198,1.00100677 C216.713837,1.00100677 218.421311,2.70848099 218.421311,4.80255316 C218.421311,6.96105831 216.77827,8.60409954 214.684198,8.60409954 C212.590126,8.60409954 210.882651,6.96105831 210.882651,4.80255316 C210.882651,2.74069749 212.590126,1.00100677 214.684198,1.00100677 Z" id="05"></path>
            </g>
        </g>
    </g>
</svg>