<?xml version="1.0" encoding="UTF-8"?>
<svg width="13px" height="15px" viewBox="0 0 13 15" version="1.1" xmlns="http://www.w3.org/2000/svg" xmlns:xlink="http://www.w3.org/1999/xlink">
    <title>03</title>
    <g id="思维导图" stroke="none" stroke-width="1" fill="none" fill-rule="evenodd">
        <g id="图标属性备份" transform="translate(-1629.000000, -492.000000)" fill="#FFFFFF" fill-rule="nonzero">
            <g id="编组-8" transform="translate(1544.000000, 491.000000)">
                <path d="M96.9595462,12.5582192 L95.9963613,10.375 L95.9963613,7.26070205 C95.9963613,5.20590753 94.6800086,3.34375 92.7857449,2.60530822 C92.7215325,1.70633562 91.9509846,1 91.0199058,1 C90.0888271,1 89.3503853,1.70633562 89.2540668,2.60530822 C87.3276969,3.34375 86.0434503,5.20590753 86.0434503,7.26070205 L86.0434503,10.375 L85.0802654,12.5582192 C84.9518408,12.8471747 84.9839469,13.1682363 85.1444777,13.4250856 C85.3050086,13.6819349 85.593964,13.8424658 85.9150257,13.8424658 L96.124786,13.8424658 C96.4458476,13.8424658 96.7348031,13.6819349 96.8953339,13.4250856 C97.0558647,13.1682363 97.0879709,12.8150685 96.9595462,12.5582192 Z M91.0199058,15.9293664 C91.9188784,15.9293664 92.625214,15.2230308 92.625214,14.3240582 L89.4145976,14.3240582 C89.4145976,15.2230308 90.1209332,15.9293664 91.0199058,15.9293664 Z" id="03"></path>
            </g>
        </g>
    </g>
</svg>