<?xml version="1.0" standalone="no"?><!DOCTYPE svg PUBLIC "-//W3C//DTD SVG 1.1//EN" "http://www.w3.org/Graphics/SVG/1.1/DTD/svg11.dtd"><svg t="1647508851420" class="icon" viewBox="0 0 1024 1024" version="1.1" xmlns="http://www.w3.org/2000/svg" p-id="5481" xmlns:xlink="http://www.w3.org/1999/xlink" width="200" height="200"><defs><style type="text/css"></style></defs><path d="M972.8 153.6h-182.215111a51.2 51.2 0 0 1-48.526222-34.986667l-16.213334-48.64A102.4 102.4 0 0 0 628.679111 0H395.377778a102.4 102.4 0 0 0-97.28 70.030222l-16.156445 48.526222a51.2 51.2 0 0 1-48.469333 35.043556H51.2a51.2 51.2 0 0 0 0 102.4h54.556444l38.4 576.853333A205.312 205.312 0 0 0 348.501333 1024h326.997334a205.312 205.312 0 0 0 204.344889-191.146667l38.456888-576.853333h54.499556a51.2 51.2 0 1 0 0-102.4zM395.320889 102.4h233.358222l16.213333 48.64c0.284444 0.910222 0.796444 1.706667 1.137778 2.616889H377.969778c0.284444-0.910222 0.796444-1.706667 1.137778-2.673778l16.156444-48.583111z m382.350222 723.626667a102.627556 102.627556 0 0 1-102.4 95.573333H348.501333a102.627556 102.627556 0 0 1-102.4-95.573333L208.327111 256h25.088c5.404444-0.170667 10.808889-0.568889 16.213333-1.308444 2.104889 0.568889 4.209778 1.024 6.371556 1.308444h512a54.442667 54.442667 0 0 0 6.428444-1.308444c5.347556 0.739556 10.752 1.137778 16.156445 1.308444h25.031111l-37.944889 570.026667zM665.6 460.8v256a51.2 51.2 0 1 1-102.4 0V460.8a51.2 51.2 0 0 1 102.4 0z m-204.8 0v256a51.2 51.2 0 1 1-102.4 0V460.8a51.2 51.2 0 0 1 102.4 0z" fill="#7986CB" p-id="5482"></path></svg>