<?xml version="1.0" standalone="no"?><!DOCTYPE svg PUBLIC "-//W3C//DTD SVG 1.1//EN" "http://www.w3.org/Graphics/SVG/1.1/DTD/svg11.dtd"><svg t="1647503089897" class="icon" viewBox="0 0 1024 1024" version="1.1" xmlns="http://www.w3.org/2000/svg" p-id="5336" xmlns:xlink="http://www.w3.org/1999/xlink" width="200" height="200"><defs><style type="text/css"></style></defs><path d="M512 0c282.7776 0 512 229.2224 512 512s-229.2224 512-512 512S0 794.7776 0 512 229.2224 0 512 0z m0 51.2a460.8 460.8 0 1 0 0 921.6 460.8 460.8 0 0 0 0-921.6zM362.8032 573.7984c41.0112 22.3744 90.624 22.3744 131.584 0a74.7008 74.7008 0 0 1 54.016-7.0144 136.8064 136.8064 0 0 1 103.7824 133.12v15.6672c0 26.9312-9.984 52.8384-28.0576 72.7552a23.1424 23.1424 0 1 1-34.304-30.976c10.3936-11.3664 16.0768-26.2144 16.0768-41.6256v-15.6672a90.624 90.624 0 0 0-68.6592-88.2688 27.7504 27.7504 0 0 0-20.2752 2.56 184.3712 184.3712 0 0 1-176.64 0 28.0576 28.0576 0 0 0-20.5312-2.7136 90.624 90.624 0 0 0-68.7104 88.32v15.616c0 15.4624 5.6832 30.3616 16.0768 41.7792a23.1424 23.1424 0 0 1-34.304 30.8736A108.032 108.032 0 0 1 204.8 715.52v-15.6672a136.8064 136.8064 0 0 1 103.7824-133.1712 74.8032 74.8032 0 0 1 54.2208 7.168z m335.0016-7.68l4.864 0.6144a136.8064 136.8064 0 0 1 103.7824 133.12v15.616c0 26.88-9.984 52.8384-28.0576 72.7552a23.1424 23.1424 0 0 1-34.304-30.976c10.3936-11.4176 16.128-26.2656 16.0768-41.6768v-15.616a90.624 90.624 0 0 0-68.6592-88.2688 23.1424 23.1424 0 1 1 11.1616-44.9536zM428.544 256a146.5344 146.5344 0 1 1 0 293.12 146.5344 146.5344 0 0 1 0-293.12z m168.448 1.0752l4.096 0.0512a146.6368 146.6368 0 0 1 73.3696 259.84 23.1424 23.1424 0 1 1-28.9792-36.096 100.352 100.352 0 0 0-50.1248-177.8176 23.1424 23.1424 0 0 1 5.7344-45.9264z m-168.448 45.2096a100.2496 100.2496 0 1 0 0 200.5504 100.2496 100.2496 0 0 0 0-200.5504z" fill="#00D0C9" p-id="5337"></path></svg>